<?xml version="1.0" ?><!DOCTYPE svg  PUBLIC '-//W3C//DTD SVG 1.1//EN'  'http://www.w3.org/Graphics/SVG/1.1/DTD/svg11.dtd'><svg enable-background="new 0 0 128 128" height="128px" id="Layer_1" version="1.1" viewBox="0 0 128 128" width="128px" xml:space="preserve" xmlns="http://www.w3.org/2000/svg" xmlns:xlink="http://www.w3.org/1999/xlink"><path d="M128,64c0,35.35-28.65,64-64,64C28.65,128,0,99.35,0,64C0,29.77,26.87,1.82,60.67,0.08  C61.77,0.03,62.88,0,64,0c0.96,0,1.91,0.02,2.859,0.06C100.88,1.56,128,29.61,128,64z" fill="#29D682"/><polygon fill="#545454" points="107.364,84.111 82.049,48.183 80.512,45.999 80.512,45.956 72.17,34.149 64.042,22.555   64.042,22.545 63.997,22.489 56.091,33.871 47.49,45.944 47.49,46.082 46.213,47.902 20.639,84.111 28.112,95.338 47.49,80.969   47.49,81.022 47.49,81.048 48.27,81.506 64.007,90.581 64.042,90.571 64.042,90.562 79.721,81.506 80.512,81.048 80.512,81.022   80.512,80.977 99.891,95.338 "/><polygon fill="#545454" points="82.26,48.057 80.58,45.67 80.407,45.67 80.407,81.014 100.311,95.764 107.871,84.406 "/><polygon fill="#686868" points="48.043,45.493 47.605,45.493 46.005,47.773 20.132,84.406 27.693,95.764 48.043,80.673 "/><polygon fill="#9C9C9C" points="64.072,49.743 55.999,33.578 47.297,45.793 47.297,81.281 "/><polygon fill="#686868" points="80.705,81.281 80.705,45.804 72.266,33.86 63.977,49.793 "/><polygon fill="#828282" points="64.042,49.698 47.297,81.281 47.297,81.307 48.086,81.77 64.007,90.951 64.042,90.941   64.042,90.932 79.904,81.77 80.705,81.307 80.705,81.281 "/><polygon fill="#828282" points="64.042,22.13 64.042,22.12 63.997,22.063 55.999,33.578 64.042,49.794 72.266,33.86 "/></svg>